# xmcd
#
# Track frame offsets: 
#        150
#        17528
#        36836
#        55122
#        73584
#        92066
#        109129
#        127906
#        145480
#        165232
#
# Disc length: 2456 seconds
#
# Revision: 0
# Processed by: cddbd v1.5.2PL0 Copyright (c) Steve Scherf et al.
# Submitted via: ExactAudioCopy v0.99pb3
#
DISCID=7d09960a
DTITLE=คำมอด พรขุนเดช - มอดสนิท ศิษย์พ่อหลอด
DYEAR=2007
DGENRE=Country
TTITLE0=มอดสนิทศิษย์พ่อหลอด
TTITLE1=โทรถามข่าวใจ
TTITLE2=น้ำตาไอ้นาย
TTITLE3=ฟ้าฮ้องน้องอยู่ไหน
TTITLE4=หลอกใช้
TTITLE5=ผ้าป่าขอใจ
TTITLE6=น้องอยู่ไหน
TTITLE7=รอเธอที่ร้านข้าวต้ม
TTITLE8=อย่าฮ้องแฮงหลาย
TTITLE9=พลังใจ
EXTD=
EXTT0=
EXTT1=
EXTT2=
EXTT3=
EXTT4=
EXTT5=
EXTT6=
EXTT7=
EXTT8=
EXTT9=
PLAYORDER=
